<svg width="174" height="178" version="1.1" viewBox="0 0 174 178" xmlns="http://www.w3.org/2000/svg" xmlns:xlink="http://www.w3.org/1999/xlink">
 <defs>
  <linearGradient id="b">
   <stop stop-color="#9dbade" offset="0"/>
  </linearGradient>
  <linearGradient id="d" x1="62.2" x2="134.9" y1="91.34" y2="91.34" gradientTransform="matrix(1.245 0 0 1.314 -14.2 -16.32)" gradientUnits="userSpaceOnUse" xlink:href="#b"/>
  <linearGradient id="e" x1="62.2" x2="134.9" y1="91.34" y2="91.34" gradientTransform="matrix(1.106 0 0 1.171 -.1131 -3.165)" gradientUnits="userSpaceOnUse" xlink:href="#b"/>
  <clipPath id="j">
   <rect x="49.55" y="37.28" width="117.9" height="98.16" fill="none" opacity=".4704" stroke="#000" stroke-width=".6483"/>
  </clipPath>
  <clipPath id="i">
   <ellipse cx="108.9" cy="103.8" rx="39.68" ry="45.03" fill="none" opacity=".4704" stroke="url(#a)" stroke-width=".6174"/>
  </clipPath>
  <linearGradient id="a" x1="62.2" x2="134.9" y1="91.34" y2="91.34" gradientTransform="matrix(1.106 0 0 1.171 -.1131 -3.165)" gradientUnits="userSpaceOnUse" xlink:href="#b"/>
  <clipPath id="h">
   <ellipse cx="108.9" cy="103.8" rx="39.68" ry="45.03" fill="none" opacity=".4704" stroke="url(#a)" stroke-width=".6174"/>
  </clipPath>
  <clipPath id="g">
   <ellipse cx="108.9" cy="103.8" rx="39.68" ry="45.03" fill="none" opacity=".4704" stroke="url(#a)" stroke-width=".6174"/>
  </clipPath>
  <clipPath id="f">
   <ellipse cx="108.9" cy="103.8" rx="39.68" ry="45.03" fill="none" opacity=".4704" stroke="url(#a)" stroke-width=".6174"/>
  </clipPath>
 </defs>
 <g transform="matrix(1.812 0 0 1.598 -109.5 -77.94)">
  <ellipse transform="matrix(-.4015 .4294 .3852 .4482 60.43 48.78)" cx=".2224" cy="125.1" rx="83.11" ry="83.76" fill="none" opacity=".4704"/>
  <ellipse cx="108.9" cy="103.8" rx="39.68" ry="45.03" fill="#79a8ed" fill-rule="evenodd" opacity=".4704" stroke="url(#e)" stroke-width=".6174"/>
  <path d="m155.5 103.4h-100.1l20.08 53.17 71.84 0.2362z" clip-path="url(#g)" fill="#3a6ead"/>
  <ellipse cx="108.6" cy="103.7" rx="44.68" ry="50.54" clip-path="url(#j)" fill="none" opacity=".4704" stroke="url(#d)" stroke-width=".6403"/>
  <g>
   <path d="m120.1 111.7s4.823-1.551 6.014-1.674 6.216-0.2249 6.787-0.1268c0.5706 0.098 1.108 0.2408 0.9152 0.9008-0.1932 0.66-0.2507 0.8682-0.49 1.073-0.2394 0.2052-4.626 4.032-4.626 4.032s4.479-3.618 4.887-3.66c0.4085-0.0412 1.102-0.5266 0.8087 0.1009s-1.513 2.081-1.966 2.422-2.859 2.758-3.089 2.719c-0.2296-0.0384-0.6014-0.055-0.8736-0.2925-0.2722-0.2375-1.863-1.28-2.496-1.898-0.6334-0.6188-1.492-1.907-1.492-1.907s-0.1126-0.2338-0.2848 0.0133c-0.1721 0.2472-0.1851 0.7388 0.0959 1.114 0.281 0.3747 1.369 1.647 1.939 1.944s1.949 1.217 2.129 1.263c0.1791 0.0466-0.6742 0.8026-0.8838 0.8384-0.2096 0.0359-0.3817 0.0544-0.4607 0.8852-0.079 0.8308-0.468 2.792-0.9629 3.601s-0.8336 1.016-1.016 0.9814c-0.1827-0.0343-0.1397-3.206-0.0672-3.496 0.0725-0.2905 1.303-1.596 1.303-1.596s-2.345-1.175-2.813-0.84c-0.4683 0.3352-4.454 0.0759-4.874 0.5693-0.4199 0.4934-2.915 2.713-0.3226 3.886-1.52 0.1864-2.137 1.278-3.005 2.713-0.3336 0.5515 2.59 1.655 2.376 1.281-0.2145-0.3739-0.1366 0.1018-0.3119 0.3148-0.1753 0.213-2.005 2.165-1.865 2.293 0.1399 0.1283 2.82 0.8151 2.953 1.159 0.1331 0.344-0.6439 1.772-0.7003 2.042-0.0564 0.2698-0.95-0.8772-0.95-0.495s0.3215 0.9881 0.596 1.342c0.2745 0.3538 1.136 0.9461 2.038 0.8064s2.489-0.8273 2.628-1.081c0.1386-0.2538 0.4049-0.2 0.3833 0.1447-0.0216 0.3447-2.275 1.676-2.251 2.459 0.0248 0.7835 2.529 1.826 2.779 2.218 0.25 0.3923 1.066 1.138 1.251 1.458 0.1854 0.3198-0.5812 0.394-1.2 0.019-0.6185-0.3751-3.841-3.003-4.372-3.576-1.505-1.622-3.634-2.162-5.021-3.391-1.89-1.674-0.5333-4.117-0.4154-7.136 0.1178-3.019 1.281-5.092 2.595-7.095 1.314-2.003 0.8134-3.948 1.333-4.274s1.096-0.6822 1.096-0.6822-0.0647-0.2446-0.2311-0.2446c-0.1664 0-1.414 1.015-1.414 1.015s-0.535-0.1379-0.4344-0.7291 0.3365-1.483 1.084-2.075c0.7476-0.5924 1.274-0.4812 1.543-0.3343 0.2682 0.1469 0.8676 0.2252 0.9301 0.399 0.0626 0.1738-0.1146 0.4286 0.0538 0.6676 0.1685 0.239 0.3717-0.071 0.3717-0.071z" fill="#fff" stroke="#000" stroke-width=".1763"/>
   <ellipse cx="130.4" cy="111.6" rx=".5245" ry=".2192" fill="#9dbade" opacity=".9042" stroke="#000" stroke-width=".1176"/>
   <path d="m66.41 69.16-5.854 44.76 42.83 0.4511-6.185-10.48-0.8419-1.783-0.6479 0.5415-2.043-1.554-2.628 3.319-2.403-1.794-1.985 1.942-2.874-2.28-2.486 1.934-1.454-3.074-3.266 0.4058-1.503-6.787-0.9827-3.35 0.4464-5.024-2.569-6.604z" clip-path="url(#i)" fill="#678462"/>
   <path d="m61.84 114.1h41.75l-3.646 8.403-9.375 5.442-9.677 24.95z" clip-path="url(#h)" fill="#96a394"/>
   <path transform="matrix(1 0 0 1.025 0 -1.763)" d="m149 71.69c-2.943 6.917 0.8289 12.01-2.066 20.36l-1.511 2.526-2.126 1.318-0.898 0.1491-2.295 4.047-2.22-0.8184-2.099 1.668-2.608-0.4426-1.509 1.011-1.807-1.637-3.971 0.5846-0.8021-0.2995-4.022 2.794 34.4 0.136z" clip-path="url(#f)" fill="#3b4b38"/>
   <text fill="#759ed0" font-family="sans-serif" font-size="6.269px" stroke-width=".5877" style="font-variant-caps:normal;font-variant-east-asian:normal;font-variant-ligatures:normal;font-variant-numeric:normal;line-height:1.25" xml:space="preserve"><textPath xlink:href="#c"><tspan fill="#759ed0" font-family="sans-serif" font-size="6.269px" stroke-width=".5877" style="font-variant-caps:normal;font-variant-east-asian:normal;font-variant-ligatures:normal;font-variant-numeric:normal">LA SANDSFJORDEN LEVA!</tspan></textPath></text>
  </g>
  <path id="c" d="m74.42 136.9s3.923 5.404 6.983 7.984c3.247 2.739 8.518 6.065 11.14 7.238 3.607 1.613 9.055 3.204 15.38 3.114 7.836-0.1124 14.18-1.149 18.89-3.844 2.838-1.624 8.176-4.857 10.08-6.669 2.356-2.246 6.08-6.637 6.08-6.637" fill="none"/>
 </g>
</svg>
