<?xml version="1.0" encoding="UTF-8"?>
<!-- Created with Inkscape (http://www.inkscape.org/) -->
<svg width="174" height="178" version="1.1" viewBox="0 0 174 178" xmlns="http://www.w3.org/2000/svg" xmlns:xlink="http://www.w3.org/1999/xlink">
 <defs>
  <linearGradient id="b">
   <stop stop-color="#9dbade" offset="0"/>
  </linearGradient>
  <linearGradient id="d" x1="62.2" x2="135" y1="91.3" y2="91.3" gradientTransform="matrix(1.25 0 0 1.31 -14.2 -16.3)" gradientUnits="userSpaceOnUse" xlink:href="#b"/>
  <linearGradient id="e" x1="62.2" x2="135" y1="91.3" y2="91.3" gradientTransform="matrix(1.11 0 0 1.17 -.113 -3.17)" gradientUnits="userSpaceOnUse" xlink:href="#b"/>
  <clipPath id="j">
   <rect x="49.6" y="37.3" width="118" height="98.2" fill="none" opacity=".47" stroke="#000" stroke-width=".648"/>
  </clipPath>
  <clipPath id="i">
   <ellipse cx="109" cy="104" rx="39.7" ry="45" fill="none" opacity=".47" stroke="url(#a)" stroke-width=".617"/>
  </clipPath>
  <linearGradient id="a" x1="62.2" x2="135" y1="91.3" y2="91.3" gradientTransform="matrix(1.11 0 0 1.17 -.113 -3.17)" gradientUnits="userSpaceOnUse" xlink:href="#b"/>
  <clipPath id="h">
   <ellipse cx="109" cy="104" rx="39.7" ry="45" fill="none" opacity=".47" stroke="url(#a)" stroke-width=".617"/>
  </clipPath>
  <clipPath id="g">
   <ellipse cx="109" cy="104" rx="39.7" ry="45" fill="none" opacity=".47" stroke="url(#a)" stroke-width=".617"/>
  </clipPath>
  <clipPath id="f">
   <ellipse cx="109" cy="104" rx="39.7" ry="45" fill="none" opacity=".47" stroke="url(#a)" stroke-width=".617"/>
  </clipPath>
 </defs>
 <g transform="matrix(1.81 0 0 1.6 -109 -77.9)">
  <ellipse transform="matrix(-.402 .429 .385 .448 60.4 48.8)" cx=".222" cy="125" rx="83.1" ry="83.8" fill="none" opacity=".47"/>
  <ellipse cx="109" cy="104" rx="39.7" ry="45" fill="#102843" fill-rule="evenodd" opacity=".47" stroke="url(#e)" stroke-width=".617"/>
  <path d="m156 103h-100l20.1 53.2 71.8 0.236z" clip-path="url(#g)" fill="#de9db1"/>
  <ellipse cx="109" cy="104" rx="44.7" ry="50.5" clip-path="url(#j)" fill="none" opacity=".47" stroke="url(#d)" stroke-width=".64"/>
  <g>
   <path d="m120 112s4.82-1.55 6.01-1.67 6.22-0.225 6.79-0.127c0.571 0.098 1.11 0.241 0.915 0.901-0.193 0.66-0.251 0.868-0.49 1.07-0.239 0.205-3.84 3.94-3.84 3.94s3.69-3.53 4.1-3.57c0.408-0.0412 1.1-0.527 0.809 0.101s-1.51 2.08-1.97 2.42-2.86 2.76-3.09 2.72c-0.23-0.0384-0.601-0.055-0.874-0.293-0.272-0.237-1.86-1.28-2.5-1.9-0.633-0.619-1.49-1.91-1.49-1.91s-0.113-0.234-0.285 0.0133c-0.172 0.247-0.185 0.739 0.0959 1.11 0.281 0.375 1.37 1.65 1.94 1.94s1.95 1.22 2.13 1.26c0.179 0.0466-0.674 0.803-0.884 0.838-0.21 0.0359-0.382 0.0544-0.461 0.885-0.079 0.831-0.468 2.79-0.963 3.6s-0.834 1.02-1.02 0.981c-0.183-0.0343-0.14-3.21-0.0672-3.5 0.0725-0.29 1.3-1.6 1.3-1.6s-3.04-0.521-3.5-0.186c-0.468 0.335-3.04 1.38-3.46 1.87-0.42 0.493-3.53 3.84 6e-3 3.5-2.76 1.07 0.21 3.97 0.0321 3.97-0.178 0-1.02-0.167-1.23-0.541-0.214-0.374-0.621-0.894-0.796-0.682-0.175 0.213-0.367 2.24-0.227 2.37 0.14 0.128 1.18 0.738 1.32 1.08 0.133 0.344-0.644 1.77-0.7 2.04-0.0564 0.27-0.95-0.877-0.95-0.495s0.322 0.988 0.596 1.34c0.274 0.354 1.14 0.946 2.04 0.806s2.49-0.827 2.63-1.08c0.139-0.254 0.405-0.2 0.383 0.145-0.0216 0.345-1.65 1.69-1.63 2.47 0.0248 0.784 1.91 1.81 2.16 2.2 0.25 0.392 1.07 1.14 1.25 1.46 0.185 0.32-0.581 0.394-1.2 0.019-0.618-0.375-3.6-2.15-4.23-2.58-0.628-0.429-3.31-1.96-4.55-4.28-1.24-2.33-0.405-4.42-0.288-7.44 0.118-3.02-0.639-4.91 0.675-6.91 1.31-2 2.1-2.68 2.67-2.86 1.36-0.445 0.944-2.08 0.944-2.08 0 0-0.0647-0.245-0.231-0.245-0.166 0-1.41 1.01-1.41 1.01s0.284-0.804 0.385-1.4-0.483-0.816 0.265-1.41c0.748-0.592 1.27-0.481 1.54-0.334 0.268 0.147 0.868 0.225 0.93 0.399 0.0626 0.174-0.115 0.429 0.0538 0.668 0.168 0.239 0.372-0.071 0.372-0.071z" fill="#fff" stroke="#000" stroke-width=".176"/>
   <ellipse cx="130" cy="113" rx=".525" ry=".597" fill="#9dbade" opacity=".904" stroke="#000" stroke-width=".118"/>
   <path d="m66.4 69.2-5.85 44.8 42.8 0.451-6.18-10.5-1.52-3.23-3.87 1.07-3.93-1.8-2.1 1.55c-1.68 0.504-2.07 0.28-3.87-0.142l-3.13 2.14-5.12-2.98 3.44-5.05-0.77-3.96 1.51-3.27-0.03-3.65-1.56-7.18z" clip-path="url(#i)" fill="#b3c4b0"/>
   <path d="m61.8 114h41.8l-3.65 8.4-9.38 5.44-9.68 25z" clip-path="url(#h)" fill="#fff"/>
  </g>
  <g fill="#b3c4b0">
   <g stroke="#fff">
    <path d="m90.6 117-0.928 5.08 5.33 1.25 0.871-4.77-2.1-3.52z" stroke-width=".485px"/>
    <path d="m77.2 123 1.06 4.68 5.43-1.58-0.995-4.39-3.29-1.89z" stroke-width=".475px"/>
    <path d="m81.9 125 1.05 6.25 6.39-1.38-0.983-5.87-3.75-2.9z" stroke-width=".588px"/>
   </g>
   <path transform="matrix(1 0 0 1.02 0 -1.76)" d="m149 71.7-10.9 2.71-1.28 0.394-8.6 23.2-7.16 4.97 34.4 0.136z" clip-path="url(#f)"/>
  </g>
  <text fill="#9dbade" font-family="sans-serif" font-size="6.27px" stroke-width=".588" style="font-variant-caps:normal;font-variant-east-asian:normal;font-variant-ligatures:normal;font-variant-numeric:normal;line-height:1.25" xml:space="preserve"><textPath xlink:href="#c"><tspan fill="#9dbade" font-family="sans-serif" font-size="6.27px" stroke-width=".588" style="font-variant-caps:normal;font-variant-east-asian:normal;font-variant-ligatures:normal;font-variant-numeric:normal">LA SANDSFJORDEN LEVA!</tspan></textPath></text>
  <path id="c" d="m74.4 137s3.92 5.4 6.98 7.98c3.25 2.74 8.52 6.07 11.1 7.24 3.61 1.61 9.06 3.2 15.4 3.11 7.84-0.112 14.2-1.15 18.9-3.84 2.84-1.62 8.18-4.86 10.1-6.67 2.36-2.25 6.08-6.64 6.08-6.64" fill="none"/>
 </g>
</svg>
