<svg width="174" height="178" version="1.1" viewBox="0 0 174 178" xmlns="http://www.w3.org/2000/svg" xmlns:xlink="http://www.w3.org/1999/xlink">
 <defs>
  <linearGradient id="linearGradient962">
   <stop stop-color="#9dbade" offset="0"/>
  </linearGradient>
  <linearGradient id="linearGradient964" x1="62.196" x2="134.95" y1="91.335" y2="91.335" gradientTransform="matrix(1.2453 0 0 1.3139 -14.199 -16.323)" gradientUnits="userSpaceOnUse" xlink:href="#linearGradient962"/>
  <linearGradient id="linearGradient1533" x1="62.196" x2="134.95" y1="91.335" y2="91.335" gradientTransform="matrix(1.106 0 0 1.1707 -.11305 -3.1651)" gradientUnits="userSpaceOnUse" xlink:href="#linearGradient962"/>
  <clipPath id="clipPath1965">
   <rect x="49.55" y="37.28" width="117.86" height="98.16" fill="none" opacity=".47039" stroke="#000" stroke-width=".64829"/>
  </clipPath>
  <clipPath id="clipPath3255">
   <ellipse cx="108.9" cy="103.76" rx="39.679" ry="45.028" fill="none" opacity=".47039" stroke="url(#linearGradient3259)" stroke-width=".61744"/>
  </clipPath>
  <linearGradient id="linearGradient3259" x1="62.196" x2="134.95" y1="91.335" y2="91.335" gradientTransform="matrix(1.106 0 0 1.1707 -.11305 -3.1651)" gradientUnits="userSpaceOnUse" xlink:href="#linearGradient962"/>
  <clipPath id="clipPath3541">
   <ellipse cx="108.9" cy="103.76" rx="39.679" ry="45.028" fill="none" opacity=".47039" stroke="url(#linearGradient3259)" stroke-width=".61744"/>
  </clipPath>
  <clipPath id="clipPath3758">
   <ellipse cx="108.9" cy="103.76" rx="39.679" ry="45.028" fill="none" opacity=".47039" stroke="url(#linearGradient3259)" stroke-width=".61744"/>
  </clipPath>
  <clipPath id="clipPath4395">
   <ellipse cx="108.9" cy="103.76" rx="39.679" ry="45.028" fill="none" opacity=".47039" stroke="url(#linearGradient3259)" stroke-width=".61744"/>
  </clipPath>
 </defs>
 <g transform="matrix(1.8118 0 0 1.5978 -109.49 -77.942)">
  <ellipse transform="matrix(-.40152 .42944 .38524 .44821 60.434 48.781)" cx=".22243" cy="125.14" rx="83.113" ry="83.764" fill="none" opacity=".47039"/>
  <ellipse cx="108.9" cy="103.76" rx="39.679" ry="45.028" fill="#d2e2f4" fill-rule="evenodd" opacity=".47039" stroke="url(#linearGradient1533)" stroke-width=".61744"/>
  <path d="m155.52 103.42h-100.07l20.077 53.173 71.839 0.2362z" clip-path="url(#clipPath3758)" fill="#9dbade"/>
  <ellipse cx="108.55" cy="103.68" rx="44.677" ry="50.536" clip-path="url(#clipPath1965)" fill="none" opacity=".47039" stroke="url(#linearGradient964)" stroke-width=".64034"/>
  <g>
   <g stroke="#000">
    <path d="m111.3 73.99c-2.9825 3.8367-4.853 5.8495-4.853 5.8495s0.16215 0.84797-2.21 4.9782c-3.0869 4.6509-4.8746 7.3552-4.8746 7.3552s5.6427-2.1555 7.5188-3.7158c3.3914-2.8206 5.8102-6.3291 7.7449-8.3062 1.9381-2.5287 4.5055-4.3749 4.5055-4.3749l-0.052-0.8177 2.2019 3.1651 0.71094-0.65816 2.2184 1.9065 0.59216-0.74859-0.4492-0.60494-1.9487-2.3319 1.607 1.3096 0.9643-2.2167-0.0859-2.669s-2.1945-0.09729-3.4945-0.696c-1.3-0.59871-1.8031-1.0419-1.8031-1.0419l1.1416 0.08618-0.34622-1.9848s-0.80603-1.4958-2.4489-1.738c-2.0186-0.29769-3.6547-0.16191-4.7622 1.2028-1.1075 1.3647-2.3833 2.6516-2.3833 2.6516s-0.77578-0.46755-2.0392-0.58273c-1.2634-0.11518-1.4918 0.76122-2.2592 1.0435-0.58292 0.21444-1.4055 0.27567-1.4055 0.27567s0.25569-0.24572-2.2057 0.72144c-2.3038 0.90525-2.0613 1.2937-2.0613 1.2937s0.87167-0.32404 2.4686-0.7691c1.5969-0.44506 2.4701-0.50144 3.2773-0.35598s2.0699 0.59236 2.0699 0.59236z" fill="#fff" stroke-width=".17632"/>
    <path d="m120.07 111.74s4.8226-1.5508 6.0143-1.6738 6.2161-0.22487 6.7867-0.12683c0.57062 0.098 1.1084 0.24083 0.91525 0.90078-0.19315 0.65996-0.25066 0.86818-0.49003 1.0734-0.23936 0.2052-0.89986 0.68656-0.89986 0.68656s0.75322-0.27283 1.1617-0.31398c0.40847-0.0412 1.1017-0.52664 0.80872 0.10091s-1.5133 2.0808-1.9655 2.4222-2.8594 2.7577-3.089 2.7194c-0.22956-0.0384-0.60136-0.055-0.87358-0.29251-0.27223-0.23749-1.8628-1.2795-2.4961-1.8983-0.63337-0.61878-1.4922-1.9071-1.4922-1.9071s-0.11265-0.23384-0.28476 0.0133c-0.17212 0.24717-0.18508 0.73883 0.0959 1.1135 0.28095 0.37469 1.3694 1.647 1.9391 1.9438s1.9494 1.2168 2.1286 1.2634c0.17913 0.0466-0.67423 0.80256-0.88381 0.83845-0.20958 0.0359-0.38167 0.0544-0.46072 0.88515-0.079 0.83075-0.46805 2.7917-0.96292 3.6014s-0.83363 1.0156-1.0163 0.98136c-0.18267-0.0343-0.13971-3.2056-0.0672-3.4961 0.0725-0.29047 1.3032-1.5956 1.3032-1.5956s-1.4144 0.69642-1.8827 1.0317c-0.46827 0.33523-2.7974 1.9844-3.2173 2.4778-0.4199 0.49342-1.8257 1.4134-1.8573 1.6715-0.0316 0.25811 0.21 3.9651 0.0321 3.9651-0.17792 0-1.016-0.16726-1.2304-0.54119-0.21449-0.37392-0.62061-0.89447-0.79591-0.68151-0.17531 0.21296-0.36693 2.2412-0.22699 2.3696 0.13994 0.12833 1.1822 0.73838 1.3153 1.0824 0.13307 0.34402-0.64389 1.7718-0.70026 2.0416-0.0564 0.26977-0.95004-0.87723-0.95004-0.49496s0.3215 0.98806 0.59597 1.3419c0.27446 0.35384 1.1363 0.94609 2.0384 0.80645s2.4892-0.82728 2.6278-1.0811c0.13857-0.25385 0.40486-0.19997 0.38329 0.14474-0.0216 0.3447-0.51718 1.1775-0.49239 1.9611 0.0248 0.78354 0.77096 2.3236 1.021 2.7158 0.25004 0.39229 1.0655 1.1381 1.2509 1.458 0.18539 0.31985-0.58123 0.39404-1.1997 0.019-0.61846-0.37508-3.6041-2.1516-4.2317-2.5809-0.62761-0.42925-3.3072-1.955-4.5508-4.2808-1.2436-2.3258-2.506-5.0057-2.3882-8.0247 0.11785-3.019 0.64832-5.4495 1.9624-7.4524 1.3141-2.0029 2.8074-2.8075 3.327-3.1329s1.0956-0.68218 1.0956-0.68218-0.0647-0.24459-0.23111-0.24459c-0.16645 0-1.4143 1.0145-1.4143 1.0145s-0.53502-0.1379-0.43445-0.72909 0.33648-1.4828 1.0841-2.0752c0.74764-0.59238 1.2745-0.48121 1.5426-0.33434 0.26815 0.14688 0.86757 0.22524 0.93014 0.39901 0.0626 0.17376-0.11465 0.42856 0.0538 0.66758 0.16849 0.23903 0.3717-0.071 0.3717-0.071z" fill="#fff" stroke-width=".17632"/>
    <ellipse cx="130.65" cy="111.2" rx=".52452" ry=".59685" fill="#9dbade" opacity=".90423" stroke-width=".11755"/>
   </g>
   <path d="m66.414 69.165 9.8385 8.2448 3.7703 8.476 11.82 6.6546 5.3633 11.359 6.1843 10.475-42.829-0.45019z" clip-path="url(#clipPath3255)" fill="#b3c4b0"/>
   <path d="m61.84 114.06h41.752l-3.6464 8.4031-9.3753 5.4424-9.6774 24.955z" clip-path="url(#clipPath3541)" fill="#fff"/>
  </g>
  <g fill="#b3c4b0">
   <g stroke="#fff">
    <path d="m88.576 117.22v5.1876h5.4442v-4.8667l-2.6886-2.9672z" stroke-width=".48544px"/>
    <path d="m79.922 119.22v4.8273h5.6118v-4.5287l-2.7714-2.7611z" stroke-width=".47543px"/>
    <path d="m83.284 120.45v6.3667h6.5028v-5.9728l-3.2115-3.6415z" stroke-width=".58775px"/>
   </g>
   <path transform="matrix(1 0 0 1.0246 0 -1.7631)" d="m149 71.685-10.9 2.7058-1.2755 0.39386-8.5991 23.186-7.1588 4.9734 34.403 0.13617z" clip-path="url(#clipPath4395)"/>
  </g>
  <text fill="#9dbade" font-family="sans-serif" font-size="6.2693px" stroke-width=".58775" style="font-variant-caps:normal;font-variant-east-asian:normal;font-variant-ligatures:normal;font-variant-numeric:normal;line-height:1.25" xml:space="preserve"><textPath xlink:href="#path9948"><tspan fill="#9dbade" font-family="sans-serif" font-size="6.2693px" stroke-width=".58775" style="font-variant-caps:normal;font-variant-east-asian:normal;font-variant-ligatures:normal;font-variant-numeric:normal">LA SANDSFJORDEN LEVA!</tspan></textPath></text>
  <path id="path9948" d="m74.416 136.92s3.9235 5.4037 6.983 7.9838c3.2474 2.7386 8.5183 6.0653 11.142 7.2385 3.6069 1.6129 9.0553 3.2044 15.379 3.1137 7.8356-0.11239 14.181-1.1486 18.889-3.8435 2.8378-1.6242 8.1763-4.8568 10.077-6.6692 2.3559-2.2465 6.08-6.6367 6.08-6.6367" fill="none"/>
 </g>
</svg>
